<svg width="111" height="22" viewBox="0 0 111 22" fill="none" xmlns="http://www.w3.org/2000/svg">
<path d="M10.0996 17H0.00195312V2.99609H10.0996V4.19727H1.32031V9.2168H8.95703V10.418H1.32031V15.7988H10.0996V17ZM18.4004 7C19.8717 7 21.099 7.47526 22.082 8.42578C23.0521 9.38281 23.5371 10.6068 23.5371 12.0977C23.5371 13.5951 23.0521 14.819 22.082 15.7695C21.099 16.7201 19.8717 17.1953 18.4004 17.1953C16.6947 17.2214 15.3796 16.6159 14.4551 15.3789L14.416 15.3203H14.3379V21.0039H13.0977V7.19531H14.3379V8.88477H14.416L14.4551 8.81641C15.4056 7.58594 16.7207 6.98047 18.4004 7ZM18.3027 16.0039C19.4811 16.0039 20.4349 15.6296 21.1641 14.8809C21.8932 14.1322 22.2578 13.2044 22.2578 12.0977C22.2578 10.9909 21.8932 10.0632 21.1641 9.31445C20.4349 8.57227 19.4811 8.20117 18.3027 8.20117C17.1439 8.20117 16.1934 8.5625 15.4512 9.28516C14.709 10.0143 14.3379 10.9518 14.3379 12.0977C14.3379 13.2435 14.709 14.181 15.4512 14.9102C16.1803 15.6393 17.1309 16.0039 18.3027 16.0039ZM26.5352 7.19531H27.7754V17H26.5352V7.19531ZM26.5645 4.10938C26.4147 3.97266 26.3398 3.79036 26.3398 3.5625C26.3398 3.33464 26.4147 3.14909 26.5645 3.00586C26.7142 2.86914 26.9128 2.80078 27.1602 2.80078C27.4076 2.80078 27.6061 2.86914 27.7559 3.00586C27.9056 3.14909 27.9805 3.33464 27.9805 3.5625C27.9805 3.79036 27.9056 3.97266 27.7559 4.10938C27.6126 4.2526 27.4141 4.32422 27.1602 4.32422C26.9062 4.32422 26.7077 4.2526 26.5645 4.10938ZM38.7812 14.2559C38.7812 13.8392 38.599 13.5072 38.2344 13.2598C37.8698 13.0059 37.3848 12.8496 36.7793 12.791C36.1413 12.7259 35.5163 12.6445 34.9043 12.5469C34.2337 12.4492 33.612 12.332 33.0391 12.1953C32.4661 12.0716 31.9844 11.8047 31.5938 11.3945C31.2161 10.9974 31.0273 10.4798 31.0273 9.8418C31.0273 8.92383 31.4245 8.2207 32.2188 7.73242C33.013 7.24414 34.0547 7 35.3438 7C36.6523 7 37.7038 7.27018 38.498 7.81055C39.2858 8.3444 39.6797 9.14844 39.6797 10.2227H38.4492C38.4492 8.84896 37.4141 8.16211 35.3438 8.16211C33.293 8.16211 32.2676 8.72201 32.2676 9.8418C32.2676 10.2389 32.4499 10.5579 32.8145 10.7988C33.179 11.0397 33.6673 11.1927 34.2793 11.2578C34.9889 11.3424 35.6107 11.4238 36.1445 11.502C36.8542 11.6191 37.4792 11.7396 38.0195 11.8633C38.5924 12.0065 39.071 12.2799 39.4551 12.6836C39.8327 13.0872 40.0215 13.6113 40.0215 14.2559C40.0215 14.946 39.8034 15.5189 39.3672 15.9746C38.931 16.4303 38.3776 16.7461 37.707 16.9219C37.043 17.1042 36.2747 17.1953 35.4023 17.1953C34.0612 17.1953 32.9577 16.9186 32.0918 16.3652C31.2194 15.8053 30.7832 14.9688 30.7832 13.8555V13.4844H32.0234V13.8555C32.0234 14.5716 32.3197 15.1152 32.9121 15.4863C33.5046 15.8574 34.3346 16.043 35.4023 16.043C37.6549 16.0365 38.7812 15.4408 38.7812 14.2559ZM44.1035 15.7793C43.1139 14.8288 42.6191 13.6016 42.6191 12.0977C42.6191 10.5938 43.1139 9.36654 44.1035 8.41602C45.0866 7.47201 46.3398 7 47.8633 7C49.3867 7 50.64 7.47201 51.623 8.41602C52.6061 9.36003 53.0977 10.5872 53.0977 12.0977C53.0977 13.6081 52.6061 14.8353 51.623 15.7793C50.64 16.7233 49.3867 17.1953 47.8633 17.1953C46.3398 17.1953 45.0866 16.7233 44.1035 15.7793ZM47.8633 16.0039C49.0417 16.0039 49.9954 15.6296 50.7246 14.8809C51.4538 14.1322 51.8184 13.2044 51.8184 12.0977C51.8184 10.9909 51.4538 10.0632 50.7246 9.31445C49.9954 8.57227 49.0417 8.20117 47.8633 8.20117C46.6914 8.20117 45.7376 8.57227 45.002 9.31445C44.2663 10.0697 43.8984 10.9974 43.8984 12.0977C43.8984 13.1979 44.2663 14.1257 45.002 14.8809C45.7311 15.6296 46.6849 16.0039 47.8633 16.0039ZM60.8418 17.1953C59.3639 17.1953 58.14 16.7201 57.1699 15.7695C56.1934 14.819 55.7051 13.5951 55.7051 12.0977C55.7051 10.6068 56.1934 9.38281 57.1699 8.42578C58.14 7.47526 59.3639 7 60.8418 7C62.502 6.98047 63.804 7.56966 64.748 8.76758C64.7611 8.7806 64.7676 8.79036 64.7676 8.79688C64.7741 8.80339 64.7806 8.8099 64.7871 8.81641L64.8262 8.88477H64.9043V2.99609H66.1445V17H64.9043V15.3203H64.8262L64.7871 15.3789C63.8236 16.6159 62.5085 17.2214 60.8418 17.1953ZM58.0879 9.31445C57.3522 10.0697 56.9844 10.9974 56.9844 12.0977C56.9844 13.1979 57.3522 14.1257 58.0879 14.8809C58.8171 15.6296 59.7708 16.0039 60.9492 16.0039C62.1146 16.0039 63.0651 15.6393 63.8008 14.9102C64.5365 14.1745 64.9043 13.237 64.9043 12.0977C64.9043 10.9583 64.5365 10.0208 63.8008 9.28516C63.0586 8.5625 62.1081 8.20117 60.9492 8.20117C59.7773 8.20117 58.8236 8.57227 58.0879 9.31445ZM79.6211 12.0977L79.5625 12.8594H70.4805C70.4805 13.1589 70.6432 13.582 70.9688 14.1289C71.1576 14.4479 71.3854 14.7409 71.6523 15.0078C71.9388 15.2943 72.3294 15.5319 72.8242 15.7207C73.319 15.9095 73.8529 16.0039 74.4258 16.0039C74.8424 16.0039 75.2428 15.9551 75.627 15.8574C76.0111 15.7598 76.3268 15.6328 76.5742 15.4766C77.056 15.1771 77.3717 14.9102 77.5215 14.6758L77.6484 14.5195H79.1426C79.1035 14.6172 79.0579 14.7116 79.0059 14.8027C78.9277 14.946 78.7617 15.1641 78.5078 15.457C78.2344 15.7695 77.9414 16.0397 77.6289 16.2676C77.2969 16.5085 76.8477 16.7201 76.2812 16.9023C75.7083 17.0977 75.0898 17.1953 74.4258 17.1953C72.8763 17.1953 71.61 16.7233 70.627 15.7793C69.6374 14.8288 69.1426 13.6016 69.1426 12.0977C69.1426 10.5938 69.6374 9.36654 70.627 8.41602C71.61 7.47201 72.8633 7 74.3867 7C75.9102 7 77.1634 7.47201 78.1465 8.41602C79.1296 9.36003 79.6211 10.5872 79.6211 12.0977ZM70.4414 11.6973H78.3223C78.3223 10.903 77.9772 10.1217 77.2871 9.35352C76.597 8.58529 75.6302 8.20117 74.3867 8.20117C73.1432 8.20117 72.1764 8.58529 71.4863 9.35352C70.7897 10.1283 70.4414 10.9095 70.4414 11.6973ZM89.0938 20.8379V22C87.1797 22 85.5716 21.0137 84.2695 19.041C82.974 17.0749 82.3262 14.526 82.3262 11.3945C82.3262 8.26953 82.974 5.72396 84.2695 3.75781C85.5716 1.78516 87.1797 0.798828 89.0938 0.798828V1.96094C87.5378 1.96094 86.2292 2.8724 85.168 4.69531C84.1003 6.52474 83.5664 8.75781 83.5664 11.3945C83.5664 14.0247 84.1003 16.2611 85.168 18.1035C86.2292 19.9264 87.5378 20.8379 89.0938 20.8379ZM100.852 13.2012C100.852 12.6608 100.679 12.2148 100.334 11.8633C99.9954 11.5052 99.5267 11.2448 98.9277 11.082C98.498 10.9648 97.8145 10.8249 96.877 10.6621C95.946 10.4993 95.3112 10.3822 94.9727 10.3105C94.2826 10.1608 93.6478 9.96549 93.0684 9.72461C92.4954 9.48372 92.0332 9.09961 91.6816 8.57227C91.3236 8.05143 91.1445 7.40039 91.1445 6.61914C91.1445 5.43424 91.6361 4.5 92.6191 3.81641C93.6087 3.13932 94.8652 2.80078 96.3887 2.80078C97.9512 2.80078 99.2174 3.14909 100.188 3.8457C101.151 4.54883 101.633 5.55469 101.633 6.86328V7.26367H100.305V6.86328C100.305 5.90625 99.9499 5.1901 99.2402 4.71484C98.5306 4.23958 97.5801 4.00195 96.3887 4.00195C95.2233 4.00195 94.2826 4.22982 93.5664 4.68555C92.8372 5.14128 92.4727 5.78581 92.4727 6.61914C92.4727 7.17253 92.6419 7.63477 92.9805 8.00586C93.3255 8.37695 93.7943 8.65039 94.3867 8.82617C94.8359 8.95638 95.5749 9.11914 96.6035 9.31445C97.6322 9.50977 98.2181 9.6237 98.3613 9.65625C99.0384 9.79948 99.6667 9.99479 100.246 10.2422C100.819 10.4831 101.285 10.8509 101.643 11.3457C101.994 11.847 102.17 12.4655 102.17 13.2012C102.17 14.4707 101.633 15.4538 100.559 16.1504C99.4779 16.847 98.1139 17.1953 96.4668 17.1953C94.8132 17.1953 93.4557 16.8307 92.3945 16.1016C91.3268 15.3789 90.793 14.3503 90.793 13.0156V12.2246H92.1113V13.0156C92.1113 14.0117 92.5182 14.7604 93.332 15.2617C94.1393 15.7565 95.1875 16.0039 96.4766 16.0039C97.7591 16.0039 98.8073 15.7663 99.6211 15.291C100.441 14.8158 100.852 14.1191 100.852 13.2012ZM103.859 22V20.8379C105.415 20.8379 106.724 19.9264 107.785 18.1035C108.853 16.2611 109.387 14.0247 109.387 11.3945C109.387 8.75781 108.853 6.52474 107.785 4.69531C106.724 2.8724 105.415 1.96094 103.859 1.96094V0.798828C105.773 0.798828 107.382 1.78516 108.684 3.75781C109.979 5.72396 110.627 8.26953 110.627 11.3945C110.627 14.526 109.979 17.0749 108.684 19.041C107.382 21.0137 105.773 22 103.859 22Z" fill="white"/>
</svg>
