<svg width="48" height="48" viewBox="0 0 48 48" fill="none" xmlns="http://www.w3.org/2000/svg">
<g clip-path="url(#clip0_43_1766)">
<path d="M37.1721 10H28.0001V6H44.0001V22H40.0001V12.828L32.9261 19.902C35.2338 22.927 36.3057 26.716 35.9248 30.5017C35.5438 34.2873 33.7386 37.7868 30.8745 40.2914C28.0103 42.7961 24.3015 44.1187 20.4988 43.9915C16.6962 43.8644 13.0839 42.2969 10.3935 39.6065C7.70314 36.9161 6.13567 33.3039 6.00851 29.5013C5.88135 25.6986 7.204 21.9897 9.70864 19.1256C12.2133 16.2615 15.7127 14.4562 19.4984 14.0753C23.2841 13.6944 27.073 14.7663 30.0981 17.074L37.1721 10Z" fill="url(#paint0_linear_43_1766)"/>
</g>
<defs>
<linearGradient id="paint0_linear_43_1766" x1="2.42366" y1="-1.53448" x2="49.0258" y2="6.23148" gradientUnits="userSpaceOnUse">
<stop stop-color="#9DFE00"/>
<stop offset="1" stop-color="#14D9E6"/>
</linearGradient>
<clipPath id="clip0_43_1766">
<rect width="48" height="48" fill="white"/>
</clipPath>
</defs>
</svg>
