<svg width="48" height="48" viewBox="0 0 48 48" fill="none" xmlns="http://www.w3.org/2000/svg">
<g clip-path="url(#clip0_43_1761)">
<path d="M22 35.876C17.9654 35.3626 14.2777 33.3323 11.6864 30.1976C9.09505 27.0629 7.79456 23.0591 8.04924 18.9999C8.30392 14.9408 10.0947 11.131 13.0575 8.34476C16.0203 5.55855 19.9329 4.00505 24 4C28.0721 3.99697 31.9921 5.54668 34.9613 8.33336C37.9305 11.12 39.7255 14.934 39.9805 18.9981C40.2355 23.0622 38.9313 27.0706 36.3337 30.2065C33.7361 33.3425 30.0405 35.37 26 35.876V40.024C33.892 40.208 40 41.47 40 43C40 44.656 32.836 46 24 46C15.164 46 8 44.656 8 43C8 41.47 14.108 40.208 22 40.024V35.876ZM24 24C25.0609 24 26.0783 23.5786 26.8284 22.8284C27.5786 22.0783 28 21.0609 28 20C28 18.9391 27.5786 17.9217 26.8284 17.1716C26.0783 16.4214 25.0609 16 24 16C22.9391 16 21.9217 16.4214 21.1716 17.1716C20.4214 17.9217 20 18.9391 20 20C20 21.0609 20.4214 22.0783 21.1716 22.8284C21.9217 23.5786 22.9391 24 24 24Z" fill="url(#paint0_linear_43_1761)"/>
</g>
<defs>
<linearGradient id="paint0_linear_43_1761" x1="4.98711" y1="-4.3276" x2="44.6953" y2="0.715912" gradientUnits="userSpaceOnUse">
<stop stop-color="#9DFE00"/>
<stop offset="1" stop-color="#14D9E6"/>
</linearGradient>
<clipPath id="clip0_43_1761">
<rect width="48" height="48" fill="white"/>
</clipPath>
</defs>
</svg>
