<svg width="48" height="48" viewBox="0 0 48 48" fill="none" xmlns="http://www.w3.org/2000/svg">
<g clip-path="url(#clip0_43_1753)">
<path d="M24 44C12.954 44 4 35.046 4 24C4 12.954 12.954 4 24 4C35.046 4 44 12.954 44 24C44 35.046 35.046 44 24 44ZM36.71 31.904V31.694C36.71 29.85 36.71 29.008 35.406 28.262C34.9869 28.0244 34.5564 27.8075 34.116 27.612C33.382 27.278 32.896 27.06 32.24 26.1C32.1617 25.986 32.0843 25.8713 32.008 25.756C31.318 24.706 30.82 23.95 28.924 24.25C25.194 24.842 24.918 25.498 24.754 26.606L24.728 26.788C24.486 28.408 24.442 28.952 25.118 29.662C27.648 32.316 29.164 34.23 29.624 35.35C29.848 35.896 30.424 37.55 30.028 39.186C32.4556 38.219 34.6165 36.685 36.33 34.712C36.55 33.964 36.71 33.032 36.71 31.904ZM24 7.666C19.366 7.666 15.18 9.598 12.208 12.698C12.562 12.944 12.87 13.29 13.082 13.766C13.49 14.68 13.49 15.622 13.49 16.456C13.49 17.112 13.49 17.736 13.7 18.186C13.988 18.802 15.232 19.066 16.33 19.294C16.724 19.378 17.128 19.462 17.496 19.564C18.508 19.844 19.292 20.754 19.918 21.484C20.178 21.786 20.564 22.232 20.758 22.344C20.858 22.272 21.18 21.922 21.338 21.348C21.462 20.908 21.426 20.52 21.248 20.308C20.128 18.988 20.19 16.448 20.536 15.51C21.08 14.032 22.78 14.142 24.024 14.222C24.488 14.252 24.924 14.282 25.252 14.24C26.496 14.084 26.88 12.19 27.15 11.82C27.734 11.02 29.522 9.814 30.63 9.07C28.543 8.14199 26.284 7.66362 24 7.666Z" fill="url(#paint0_linear_43_1753)"/>
</g>
<defs>
<linearGradient id="paint0_linear_43_1753" x1="0.235296" y1="-3.93104" x2="49.2902" y2="4.24367" gradientUnits="userSpaceOnUse">
<stop stop-color="#9DFE00"/>
<stop offset="1" stop-color="#14D9E6"/>
</linearGradient>
<clipPath id="clip0_43_1753">
<rect width="48" height="48" fill="white"/>
</clipPath>
</defs>
</svg>
