<svg width="32" height="32" viewBox="0 0 32 32" fill="none" xmlns="http://www.w3.org/2000/svg">
<g clip-path="url(#clip0_43_1748)">
<path d="M13.3333 8V10.6667H6.66667V25.3333H21.3333V18.6667H24V26.6667C24 27.0203 23.8595 27.3594 23.6095 27.6095C23.3594 27.8595 23.0203 28 22.6667 28H5.33333C4.97971 28 4.64057 27.8595 4.39052 27.6095C4.14048 27.3594 4 27.0203 4 26.6667V9.33333C4 8.97971 4.14048 8.64057 4.39052 8.39052C4.64057 8.14048 4.97971 8 5.33333 8H13.3333ZM28 4V16L22.9413 10.9427L14.9427 18.9427L13.0573 17.0573L21.056 9.05733L16 4H28Z" fill="white"/>
</g>
<defs>
<clipPath id="clip0_43_1748">
<rect width="32" height="32" fill="white"/>
</clipPath>
</defs>
</svg>
