<svg width="48" height="48" viewBox="0 0 48 48" fill="none" xmlns="http://www.w3.org/2000/svg">
<g clip-path="url(#clip0_43_1769)">
<path d="M12.764 7.93602C15.9515 5.38215 19.9156 3.99351 24 4.00002C28.25 4.00002 32.156 5.47202 35.236 7.93602L38.142 5.03002L40.97 7.85802L38.064 10.764C40.6179 13.9515 42.0065 17.9156 42 22V24H6V22C6 17.75 7.472 13.844 9.936 10.764L7.03 7.86002L9.858 5.03202L12.764 7.93802V7.93602ZM6 28H42V42C42 42.5305 41.7893 43.0392 41.4142 43.4142C41.0391 43.7893 40.5304 44 40 44H8C7.46957 44 6.96086 43.7893 6.58579 43.4142C6.21071 43.0392 6 42.5305 6 42V28ZM18 18C18.5304 18 19.0391 17.7893 19.4142 17.4142C19.7893 17.0392 20 16.5305 20 16C20 15.4696 19.7893 14.9609 19.4142 14.5858C19.0391 14.2107 18.5304 14 18 14C17.4696 14 16.9609 14.2107 16.5858 14.5858C16.2107 14.9609 16 15.4696 16 16C16 16.5305 16.2107 17.0392 16.5858 17.4142C16.9609 17.7893 17.4696 18 18 18ZM30 18C30.5304 18 31.0391 17.7893 31.4142 17.4142C31.7893 17.0392 32 16.5305 32 16C32 15.4696 31.7893 14.9609 31.4142 14.5858C31.0391 14.2107 30.5304 14 30 14C29.4696 14 28.9609 14.2107 28.5858 14.5858C28.2107 14.9609 28 15.4696 28 16C28 16.5305 28.2107 17.0392 28.5858 17.4142C28.9609 17.7893 29.4696 18 30 18Z" fill="url(#paint0_linear_43_1769)"/>
</g>
<defs>
<linearGradient id="paint0_linear_43_1769" x1="2.61176" y1="-3.93105" x2="46.9891" y2="2.72464" gradientUnits="userSpaceOnUse">
<stop stop-color="#9DFE00"/>
<stop offset="1" stop-color="#14D9E6"/>
</linearGradient>
<clipPath id="clip0_43_1769">
<rect width="48" height="48" fill="white"/>
</clipPath>
</defs>
</svg>
